{"title":"Iron.Man.2013.CAM.FULL.REPACK.XViD-FANTA","uid":8449560,"size":1530345709,"categoryP":"video","categoryS":"movies","magnet":"?xt=urn:btih:90aa04ce090f692d0bc596289c4e0285d4b163db&amp;dn=Iron.Man.2013.CAM.FULL.REPACK.XViD-FANTA&amp;tr=udp%3A%2F%2Ftracker.openbittorrent.com%3A80&amp;tr=udp%3A%2F%2Fopen.demonii.com%3A1337&amp;tr=udp%3A%2F%2Ftracker.coppersurfer.tk%3A6969&amp;tr=udp%3A%2F%2Fexodus.desync.com%3A6969","seeders":0,"leechers":0,"uploader":"Gh0stNet","files":4,"time":1367963806,"description":"Format                                   : AVI\nFormat/Info                              : Audio Video Interleave\nFile size                                : 1.37 GiB\nDuration                                 : 1h 59mn\nOverall bit rate                         : 1 636 Kbps\nWriting application                      : VirtualDubMod 1.5.10.2 (build 2542/release)\nWriting library                          : VirtualDubMod build 2542/release\n\nVideo\nID                                       : 0\nFormat                                   : MPEG-4 Visual\nFormat profile                           : Advanced Simple@L5\nFormat settings, BVOP                    : 1\nFormat settings, QPel                    : No\nFormat settings, GMC                     : No warppoints\nFormat settings, Matrix                  : Default (H.263)\nMuxing mode                              : Packed bitstream\nCodec ID                                 : XVID\nCodec ID/Hint                            : XviD\nDuration                                 : 1h 59mn\nBit rate                                 : 1 436 Kbps\nWidth                                    : 636 pixels\nHeight                                   : 254 pixels\nDisplay aspect ratio                     : 2.504\nFrame rate                               : 23.976 fps\nColor space                              : YUV\nChroma subsampling                       : 4:2:0\nBit depth                                : 8 bits\nScan type                                : Progressive\nCompression mode                         : Lossy\nBits/(Pixel*Frame)                       : 0.371\nStream size                              : 1.20 GiB (88%)\nWriting library                          : XviD 64\n\nAudio\nID                                       : 1\nFormat                                   : AC-3\nFormat/Info                              : Audio Coding 3\nMode extension                           : CM (complete main)\nFormat settings, Endianness              : Big\nCodec ID                                 : 2000\nDuration                                 : 1h 59mn\nBit rate mode                            : Constant\nBit rate                                 : 192 Kbps\nChannel(s)                               : 2 channels\nChannel positions                        : Front: L R\nSampling rate                            : 48.0 KHz\nBit depth                                : 16 bits\nCompression mode                         : Lossy\nStream size                              : 165 MiB (12%)\nAlignment                                : Split accross interleaves\nInterleave, duration                     : 64 ms (1.53 video frames)\nInterleave, preload duration             : 500 ms\n\nScreens:\n &lt;a href=&quot;\nhttp://i.imgur.com/TNq1kDE.jpg&quot; rel=&quot;nofollow&quot; target=&quot;_NEW&quot;&gt;\nhttp://i.imgur.com/TNq1kDE.jpg&lt;/a&gt; &lt;a href=&quot;\nhttp://i.imgur.com/NYyz46d.jpg&quot; rel=&quot;nofollow&quot; target=&quot;_NEW&quot;&gt;\nhttp://i.imgur.com/NYyz46d.jpg&lt;/a&gt; &lt;a href=&quot;\nhttp://i.imgur.com/vD64QM3.jpg&quot; rel=&quot;nofollow&quot; target=&quot;_NEW&quot;&gt;\nhttp://i.imgur.com/vD64QM3.jpg&lt;/a&gt; &lt;a href=&quot;\nhttp://i.imgur.com/tBTUoLy.jpg&quot; rel=&quot;nofollow&quot; target=&quot;_NEW&quot;&gt;\nhttp://i.imgur.com/tBTUoLy.jpg&lt;/a&gt;","torrent":{"xt":"urn:btih:90aa04ce090f692d0bc596289c4e0285d4b163db","amp;dn":"Iron.Man.2013.CAM.FULL.REPACK.XViD-FANTA","amp;tr":["udp%3A%2F%2Ftracker.openbittorrent.com%3A80","udp%3A%2F%2Fopen.demonii.com%3A1337","udp%3A%2F%2Ftracker.coppersurfer.tk%3A6969","udp%3A%2F%2Fexodus.desync.com%3A6969"],"infoHash":"90aa04ce090f692d0bc596289c4e0285d4b163db","infoHashBuffer":{"type":"Buffer","data":[144,170,4,206,9,15,105,45,11,197,150,40,156,78,2,133,212,177,99,219]},"announce":[],"urlList":[]}}